<?xml version="1.0" encoding="utf-8"?>
<svg version="1.1" id="Layer_1" xmlns="http://www.w3.org/2000/svg" viewBox="0 0 521.5 398.9">
<g>
    <path d="M0.2,164.9L265,3.7l264.8,161.2l-261,151.3l-3.8,2.2L0.2,164.9z M29.8,164.6L265,301l235.2-136.4L265,21.4L29.8,164.6z"
        />
    <path d="M316.5,224.4V222v-38.6l117.6-5.6l-0.6-8.2h-117V97.9c0-19.9-16.1-36-36-36c-19.9,0-36,16.1-36,36v34.9l0,0.3v36.4h-6.9
        l-13.2,18.3l20.1-1v32.4c0,11.5-9.3,20.8-20.9,20.9c-11.5,0-20.8-9.3-20.8-20.9l0.2-102.7V115c0,0,0.5-13.8-7.5-21
        c-10.6-9.3-32.7-3.9-32.7-3.9c27.4,0.2,25,23.6,25,23.6l0,2.8v102.7c0,19.9,16.1,36,36,36c19.9,0,36-16.1,36-36v-33.1l41.9-2
        l0.1,37.9v1.1c0,0-0.8,13.8,7.2,21c10.6,9.3,32.7,3.9,32.7,3.9C315.3,248.3,316.5,224.4,316.5,224.4 M259.6,169.6V134l0-0.3
        V97.9c0-11.5,9.3-20.8,20.8-20.9c11.5,0,20.8,9.3,20.9,20.9l0.1,71.6H259.6z"/>
    <path d="M9.2,342h5.8v36.6c0,11.1,0.7,16.4,8.5,16.4c7.7,0,8.5-5.4,8.5-16.4V342h5.8v37.2c0,7.5-0.2,12.7-3,16.3
        c-2.4,3-6.4,4.8-11.3,4.8c-5,0-9-1.8-11.4-4.8c-2.8-3.6-3-8.8-3-16.3V342z"/>
    <path d="M56.5,346.5v52.7h-5.1V342h8.5l11.8,32.4c1.7,4.7,3.2,9.4,4.7,14.2c-0.5-4.9-0.5-9.1-0.5-12.5V342H81v57.2h-5.8
        l-14.4-39.5C59.1,354.9,57.7,350.5,56.5,346.5"/>
    <rect x="94.7" y="342" width="5.8" height="57.2"/>
    <path d="M109.5,342h5.9l8.5,39c0.5,2.1,0.9,5.1,1.4,8.9c0.5-2.8,1-5.9,1.7-9.2l8.5-38.7h5.6l-13,57.2h-5.5L109.5,342z"/>
    <polygon points="151.4,342 177.1,342 177.1,347.3 157.2,347.3 157.2,367 171.8,367 171.8,372.2 157.2,372.2 157.2,393.9
        177.8,393.9 177.8,399.2 151.4,399.2 				"/>
    <path d="M189.1,342h10.4c12.3,0,18.4,4.9,18.4,15c0,7-3.2,11.8-9,13.7l9.3,28.5h-6.3l-8.6-27.2c-2,0.1-4,0.2-6.1,0.2h-2.3v27
        h-5.9V342z M199.9,367c7.8,0,11.8-3.3,11.8-10c0-6.7-3.9-10-11.8-10h-5V367H199.9z"/>
    <path d="M230.9,384c0.4,7.4,3.2,11,9.1,11c5,0,8.4-3.7,8.4-9.5c0-6.2-4.1-9.8-11.1-14.9c-7-5.2-11.1-9-11.1-16.8
        c0-7.3,5.3-12.9,12.6-12.9c8.5,0,13.7,5.6,14,15.5h-5.5c-0.5-7-3.2-10.6-8.3-10.6c-4.7,0-7.7,3.1-7.7,8c0,2.5,1,4.9,2.8,6.7
        c3,3.2,7,5.6,10.7,8.6c6.1,4.9,9,9.5,9,16.1c0,9.2-5.7,15-14.1,15c-9,0-14.3-5.8-14.5-16.3H230.9z"/>
    <path d="M275.1,342h8.1l12.5,57.2h-6.2l-3.3-16.8h-14.4l-3.3,16.8h-5.8L275.1,342z M285,377l-6-29.9L273,377H285z"/>
    <polygon points="306.6,342 312.5,342 312.5,393.7 330.5,393.7 330.5,399.2 306.6,399.2 				"/>
    <path d="M361.6,342h8.1l12.5,57.2h-6.2l-3.3-16.8h-14.4l-3.3,16.8h-5.8L361.6,342z M371.4,377l-6-29.9l-5.9,29.9H371.4z"/>
    <path d="M391,342h5.9v36.6c0,11.1,0.7,16.4,8.5,16.4c7.7,0,8.5-5.4,8.5-16.4V342h5.9v37.2c0,7.5-0.2,12.7-3,16.3
        c-2.4,3-6.4,4.8-11.3,4.8c-5,0-9-1.8-11.4-4.8c-2.8-3.6-3-8.8-3-16.3V342z"/>
    <path d="M431.8,342h10.6c13.5,0,19,8.9,19,28.5c0,19.8-5.4,28.7-19,28.7h-10.6V342z M437.8,393.8c1.1,0.1,2.2,0.2,3.2,0.2
        c11.4,0,14.6-6.8,14.6-23.6c0-16.7-3.2-23.4-14.5-23.4c-1,0-2.1,0.1-3.2,0.2V393.8z"/>
    <rect x="473.2" y="342" width="5.8" height="57.2"/>
    <path d="M489.2,370.6c0-19.7,5.5-29.6,15.7-29.6c10.3,0,15.8,10,15.8,29.6c0,19.7-5.5,29.7-15.8,29.7
        C494.7,400.3,489.2,390.3,489.2,370.6 M495.4,369.2c0,17.3,2.5,25.7,9.6,25.7c6.9,0,9.6-8,9.6-24.3c0-16.4-2.8-24.3-9.6-24.3
        C498.2,346.2,495.4,353.7,495.4,369.2"/>

</g>
</svg>
